<?xml version="1.0" encoding="UTF-8"?>
<svg width="2440px" height="2024px" viewBox="0 0 2440 2024" version="1.1" xmlns="http://www.w3.org/2000/svg" xmlns:xlink="http://www.w3.org/1999/xlink" style="background: #FFFFFF;">
    <!-- Generator: Sketch 49.3 (51167) - http://www.bohemiancoding.com/sketch -->
    <title>Desktop HD Copy 5</title>
    <desc>Created with Sketch.</desc>
    <defs>
        <linearGradient x1="0%" y1="0%" x2="100%" y2="0%" id="linearGradient-1">
            <stop stop-color="#FFF6B4" offset="0%"></stop>
            <stop stop-color="#FFE97D" offset="100%"></stop>
        </linearGradient>
        <linearGradient x1="50.7578127%" y1="-0.749999995%" x2="50.7578127%" y2="100.25%" id="linearGradient-2">
            <stop stop-color="#B34DFC" stop-opacity="0.960091491" offset="0%"></stop>
            <stop stop-color="#41AAED" stop-opacity="0.788817474" offset="40.7335352%"></stop>
            <stop stop-color="#EF005E" stop-opacity="0.717249774" offset="57.2141438%"></stop>
            <stop stop-color="#FFCD42" offset="100%"></stop>
        </linearGradient>
        <linearGradient x1="0.25781251%" y1="49.7500002%" x2="101.257813%" y2="49.7500002%" id="linearGradient-3">
            <stop stop-color="#41AAED" stop-opacity="0.788817474" offset="0%"></stop>
            <stop stop-color="#EF005E" stop-opacity="0.717249774" offset="57.2141438%"></stop>
            <stop stop-color="#FFCD42" offset="100%"></stop>
        </linearGradient>
    </defs>
    <g id="Desktop-HD-Copy-5" stroke="none" stroke-width="1" fill="none" fill-rule="evenodd">
        <rect id="Rectangle-5" fill="url(#linearGradient-1)" x="0" y="0" width="1280" height="640"></rect>
        <g id="Group-7" transform="translate(491.000000, 143.000000)" fill-rule="nonzero" stroke="">
            <g id="Fichier-7-Copy-3" opacity="0.297101449" transform="translate(0.000000, 140.000000)" fill="">
                <polygon id="Shape" points="297.614353 85.995 149.315529 172.025 0.140235294 86.03 148.404 0"></polygon>
                <polygon id="Shape" points="297.614353 85.995 297.474118 128.8 149.210353 214.83 149.315529 172.025"></polygon>
                <polygon id="Shape" points="149.315529 172.025 149.210353 214.83 0 128.8 0.140235294 86.03"></polygon>
            </g>
            <g id="Fichier-7-Copy-2" opacity="0.804347826" transform="translate(0.000000, 70.000000)" fill="url(#linearGradient-2)">
                <polygon id="Shape" points="297.614353 85.995 149.315529 172.025 0.140235294 86.03 148.404 0"></polygon>
                <polygon id="Shape" points="297.614353 85.995 297.474118 128.8 149.210353 214.83 149.315529 172.025"></polygon>
                <polygon id="Shape" points="149.315529 172.025 149.210353 214.83 0 128.8 0.140235294 86.03"></polygon>
            </g>
            <g id="Fichier-7" fill="url(#linearGradient-3)">
                <polygon id="Shape" points="297.614353 85.995 149.315529 172.025 0.140235294 86.03 148.404 0"></polygon>
                <polygon id="Shape" points="297.614353 85.995 297.474118 128.8 149.210353 214.83 149.315529 172.025"></polygon>
                <polygon id="Shape" points="149.315529 172.025 149.210353 214.83 0 128.8 0.140235294 86.03"></polygon>
            </g>
        </g>
        <text id="BN" font-family="Montserrat-Bold, Montserrat" font-size="150" font-weight="bold" letter-spacing="1" fill="#000000">
            <tspan x="522" y="380">B</tspan>
            <tspan x="637.75" y="380">N</tspan>
        </text>
        <text id="Front/Back-end-evelo" opacity="0.876528533" font-family="Raleway-SemiBold, Raleway" font-size="27" font-weight="500" letter-spacing="1" fill="#000000">
            <tspan x="457.414" y="420">Front/Back end evelopper</tspan>
        </text>
        <text id="it" font-family="socialmedia, social media 2018" font-size="36" font-weight="normal" letter-spacing="1" fill="#000000">
            <tspan x="1184" y="616">i</tspan>
            <tspan x="1220.15625" y="616">t</tspan>
        </text>
    </g>
</svg>