<svg width="1280" height="640" viewBox="0 0 1280 640" fill="none" xmlns="http://www.w3.org/2000/svg">
<rect width="1280" height="640" fill="#F4F6F8"/>
<circle cx="933.319" cy="320.128" r="31" fill="#FFCE51"/>
<path d="M347.575 333.184C345.679 333.184 344.011 332.812 342.571 332.068C341.131 331.324 340.015 330.232 339.223 328.792C338.431 327.352 338.035 325.588 338.035 323.5V322.348H343.111V323.932C343.111 325.324 343.519 326.428 344.335 327.244C345.151 328.036 346.219 328.432 347.539 328.432C348.883 328.432 349.951 328.036 350.743 327.244C351.559 326.428 351.967 325.324 351.967 323.932V310H357.079V323.5C357.079 325.588 356.683 327.352 355.891 328.792C355.099 330.232 353.995 331.324 352.579 332.068C351.163 332.812 349.495 333.184 347.575 333.184ZM341.239 310.72V306.22H357.079V310.72H341.239ZM368.656 333.112C366.4 333.112 364.648 332.368 363.4 330.88C362.176 329.392 361.564 327.184 361.564 324.256V312.916H366.568V324.688C366.568 325.888 366.904 326.848 367.576 327.568C368.248 328.264 369.16 328.612 370.312 328.612C371.464 328.612 372.4 328.24 373.12 327.496C373.864 326.752 374.236 325.744 374.236 324.472V312.916H379.24V332.5H375.28V324.184H375.676C375.676 326.152 375.424 327.796 374.92 329.116C374.416 330.436 373.66 331.432 372.652 332.104C371.644 332.776 370.384 333.112 368.872 333.112H368.656ZM384.268 332.5V312.952H388.228V321.34H387.868C387.868 319.348 388.132 317.692 388.66 316.372C389.188 315.028 389.968 314.02 391 313.348C392.056 312.676 393.364 312.34 394.924 312.34H395.14C397.468 312.34 399.232 313.096 400.432 314.608C401.632 316.096 402.232 318.328 402.232 321.304V332.5H397.228V320.872C397.228 319.672 396.88 318.7 396.184 317.956C395.512 317.212 394.576 316.84 393.376 316.84C392.152 316.84 391.156 317.224 390.388 317.992C389.644 318.736 389.272 319.744 389.272 321.016V332.5H384.268ZM407.828 332.5V312.952H412.832V332.5H407.828ZM405.092 316.696V312.952H412.832V316.696H405.092ZM409.664 310.612C408.68 310.612 407.948 310.36 407.468 309.856C407.012 309.328 406.784 308.68 406.784 307.912C406.784 307.096 407.012 306.436 407.468 305.932C407.948 305.428 408.68 305.176 409.664 305.176C410.648 305.176 411.368 305.428 411.824 305.932C412.28 306.436 412.508 307.096 412.508 307.912C412.508 308.68 412.28 309.328 411.824 309.856C411.368 310.36 410.648 310.612 409.664 310.612ZM427.275 333.184C425.547 333.184 424.023 332.908 422.703 332.356C421.383 331.804 420.267 331.06 419.355 330.124C418.443 329.164 417.747 328.084 417.267 326.884C416.811 325.684 416.583 324.436 416.583 323.14V322.384C416.583 321.04 416.823 319.768 417.303 318.568C417.807 317.344 418.515 316.264 419.427 315.328C420.363 314.368 421.491 313.624 422.811 313.096C424.131 312.544 425.619 312.268 427.275 312.268C428.931 312.268 430.419 312.544 431.739 313.096C433.059 313.624 434.175 314.368 435.087 315.328C436.023 316.264 436.731 317.344 437.211 318.568C437.691 319.768 437.931 321.04 437.931 322.384V323.14C437.931 324.436 437.691 325.684 437.211 326.884C436.755 328.084 436.071 329.164 435.159 330.124C434.247 331.06 433.131 331.804 431.811 332.356C430.491 332.908 428.979 333.184 427.275 333.184ZM427.275 328.9C428.499 328.9 429.531 328.636 430.371 328.108C431.211 327.556 431.847 326.824 432.279 325.912C432.711 324.976 432.927 323.92 432.927 322.744C432.927 321.544 432.699 320.488 432.243 319.576C431.811 318.64 431.163 317.908 430.299 317.38C429.459 316.828 428.451 316.552 427.275 316.552C426.099 316.552 425.079 316.828 424.215 317.38C423.375 317.908 422.727 318.64 422.271 319.576C421.815 320.488 421.587 321.544 421.587 322.744C421.587 323.92 421.803 324.976 422.235 325.912C422.691 326.824 423.339 327.556 424.179 328.108C425.019 328.636 426.051 328.9 427.275 328.9ZM441.593 332.5V312.952H445.553V321.232H445.445C445.445 318.424 446.045 316.3 447.245 314.86C448.445 313.42 450.209 312.7 452.537 312.7H453.257V317.056H451.889C450.209 317.056 448.901 317.512 447.965 318.424C447.053 319.312 446.597 320.608 446.597 322.312V332.5H441.593ZM463.33 332.5V306.22H468.442V332.5H463.33ZM467.722 321.556V317.236L478.234 317.2V321.52L467.722 321.556ZM467.722 310.54V306.22H478.738V310.54H467.722ZM482.112 332.5V312.952H486.072V321.232H485.964C485.964 318.424 486.564 316.3 487.764 314.86C488.964 313.42 490.728 312.7 493.056 312.7H493.776V317.056H492.408C490.728 317.056 489.42 317.512 488.484 318.424C487.572 319.312 487.116 320.608 487.116 322.312V332.5H482.112ZM505.66 333.184C503.932 333.184 502.408 332.908 501.088 332.356C499.768 331.804 498.652 331.06 497.74 330.124C496.828 329.164 496.132 328.084 495.652 326.884C495.196 325.684 494.968 324.436 494.968 323.14V322.384C494.968 321.04 495.208 319.768 495.688 318.568C496.192 317.344 496.9 316.264 497.812 315.328C498.748 314.368 499.876 313.624 501.196 313.096C502.516 312.544 504.004 312.268 505.66 312.268C507.316 312.268 508.804 312.544 510.124 313.096C511.444 313.624 512.56 314.368 513.472 315.328C514.408 316.264 515.116 317.344 515.596 318.568C516.076 319.768 516.316 321.04 516.316 322.384V323.14C516.316 324.436 516.076 325.684 515.596 326.884C515.14 328.084 514.456 329.164 513.544 330.124C512.632 331.06 511.516 331.804 510.196 332.356C508.876 332.908 507.364 333.184 505.66 333.184ZM505.66 328.9C506.884 328.9 507.916 328.636 508.756 328.108C509.596 327.556 510.232 326.824 510.664 325.912C511.096 324.976 511.312 323.92 511.312 322.744C511.312 321.544 511.084 320.488 510.628 319.576C510.196 318.64 509.548 317.908 508.684 317.38C507.844 316.828 506.836 316.552 505.66 316.552C504.484 316.552 503.464 316.828 502.6 317.38C501.76 317.908 501.112 318.64 500.656 319.576C500.2 320.488 499.972 321.544 499.972 322.744C499.972 323.92 500.188 324.976 500.62 325.912C501.076 326.824 501.724 327.556 502.564 328.108C503.404 328.636 504.436 328.9 505.66 328.9ZM519.977 332.5V312.952H523.937V321.34H523.577C523.577 319.348 523.841 317.692 524.369 316.372C524.897 315.028 525.677 314.02 526.709 313.348C527.765 312.676 529.073 312.34 530.633 312.34H530.849C533.177 312.34 534.941 313.096 536.141 314.608C537.341 316.096 537.941 318.328 537.941 321.304V332.5H532.937V320.872C532.937 319.672 532.589 318.7 531.893 317.956C531.221 317.212 530.285 316.84 529.085 316.84C527.861 316.84 526.865 317.224 526.097 317.992C525.353 318.736 524.981 319.744 524.981 321.016V332.5H519.977ZM551.097 332.752C549.297 332.752 547.809 332.524 546.633 332.068C545.481 331.588 544.617 330.796 544.041 329.692C543.465 328.564 543.177 327.052 543.177 325.156L543.213 307.444H547.893L547.857 325.48C547.857 326.44 548.109 327.184 548.613 327.712C549.141 328.216 549.885 328.468 550.845 328.468H553.905V332.752H551.097ZM540.081 316.624V312.952H553.905V316.624H540.081ZM562.346 334.66L569.762 304.42H574.766L567.35 334.66H562.346ZM589.331 332.68V328.576H595.919C597.119 328.576 598.031 328.252 598.655 327.604C599.279 326.932 599.591 326.02 599.591 324.868C599.591 323.716 599.279 322.828 598.655 322.204C598.031 321.556 597.119 321.232 595.919 321.232H589.331V318.1H595.559C597.311 318.1 598.871 318.316 600.239 318.748C601.631 319.156 602.711 319.852 603.479 320.836C604.271 321.82 604.667 323.14 604.667 324.796V325.3C604.667 326.86 604.319 328.192 603.623 329.296C602.951 330.376 601.931 331.216 600.563 331.816C599.219 332.392 597.551 332.68 595.559 332.68H589.331ZM585.047 332.68V306.04H590.051V332.68H585.047ZM589.331 320.404V317.272H594.947C596.171 317.272 597.071 316.948 597.647 316.3C598.223 315.652 598.511 314.788 598.511 313.708C598.511 312.628 598.223 311.764 597.647 311.116C597.071 310.468 596.171 310.144 594.947 310.144H589.331V306.04H594.479C597.455 306.04 599.711 306.664 601.247 307.912C602.807 309.16 603.587 310.948 603.587 313.276V313.78C603.587 315.412 603.191 316.72 602.399 317.704C601.631 318.664 600.563 319.36 599.195 319.792C597.827 320.2 596.255 320.404 594.479 320.404H589.331ZM620.56 332.5V326.704H619.732V320.26C619.732 319.132 619.456 318.292 618.904 317.74C618.352 317.188 617.5 316.912 616.348 316.912C615.748 316.912 615.028 316.924 614.188 316.948C613.348 316.972 612.496 317.008 611.632 317.056C610.792 317.08 610.036 317.116 609.364 317.164V312.916C609.916 312.868 610.54 312.82 611.236 312.772C611.932 312.724 612.64 312.7 613.36 312.7C614.104 312.676 614.8 312.664 615.448 312.664C617.464 312.664 619.132 312.928 620.452 313.456C621.796 313.984 622.804 314.812 623.476 315.94C624.172 317.068 624.52 318.544 624.52 320.368V332.5H620.56ZM614.26 333.004C612.844 333.004 611.596 332.752 610.516 332.248C609.46 331.744 608.632 331.024 608.032 330.088C607.456 329.152 607.168 328.024 607.168 326.704C607.168 325.264 607.516 324.088 608.212 323.176C608.932 322.264 609.928 321.58 611.2 321.124C612.496 320.668 614.008 320.44 615.736 320.44H620.272V323.428H615.664C614.512 323.428 613.624 323.716 613 324.292C612.4 324.844 612.1 325.564 612.1 326.452C612.1 327.34 612.4 328.06 613 328.612C613.624 329.164 614.512 329.44 615.664 329.44C616.36 329.44 616.996 329.32 617.572 329.08C618.172 328.816 618.664 328.384 619.048 327.784C619.456 327.16 619.684 326.32 619.732 325.264L620.956 326.668C620.836 328.036 620.5 329.188 619.948 330.124C619.42 331.06 618.676 331.78 617.716 332.284C616.78 332.764 615.628 333.004 614.26 333.004ZM637.836 333.184C636.132 333.184 634.656 332.896 633.408 332.32C632.184 331.744 631.152 330.976 630.312 330.016C629.496 329.056 628.884 327.976 628.476 326.776C628.068 325.576 627.864 324.352 627.864 323.104V322.42C627.864 321.1 628.068 319.84 628.476 318.64C628.908 317.416 629.544 316.336 630.384 315.4C631.224 314.44 632.256 313.684 633.48 313.132C634.728 312.556 636.168 312.268 637.8 312.268C639.504 312.268 641.028 312.604 642.372 313.276C643.716 313.924 644.784 314.836 645.576 316.012C646.392 317.188 646.848 318.556 646.944 320.116H642.084C641.964 319.108 641.532 318.268 640.788 317.596C640.068 316.924 639.072 316.588 637.8 316.588C636.696 316.588 635.772 316.852 635.028 317.38C634.308 317.908 633.768 318.64 633.408 319.576C633.048 320.488 632.868 321.544 632.868 322.744C632.868 323.896 633.036 324.94 633.372 325.876C633.732 326.812 634.272 327.544 634.992 328.072C635.736 328.6 636.684 328.864 637.836 328.864C638.7 328.864 639.444 328.708 640.068 328.396C640.692 328.084 641.184 327.652 641.544 327.1C641.928 326.548 642.168 325.924 642.264 325.228H647.124C647.028 326.812 646.56 328.204 645.72 329.404C644.904 330.58 643.812 331.504 642.444 332.176C641.1 332.848 639.564 333.184 637.836 333.184ZM664.092 332.5L657.54 323.356H654.624L662.94 312.952H668.16L660.492 322.564L660.6 320.044L669.744 332.5H664.092ZM650.412 332.5V306.22H655.416V332.5H650.412ZM670.13 324.58V320.188H684.71V324.58H670.13ZM697.412 333.184C695.732 333.184 694.256 332.896 692.984 332.32C691.736 331.744 690.692 330.976 689.852 330.016C689.036 329.032 688.412 327.94 687.98 326.74C687.572 325.54 687.368 324.316 687.368 323.068V322.384C687.368 321.088 687.572 319.84 687.98 318.64C688.412 317.416 689.036 316.336 689.852 315.4C690.692 314.44 691.724 313.684 692.948 313.132C694.172 312.556 695.588 312.268 697.196 312.268C699.308 312.268 701.072 312.736 702.488 313.672C703.928 314.584 705.008 315.796 705.728 317.308C706.448 318.796 706.808 320.404 706.808 322.132V323.932H689.492V320.872H703.676L702.128 322.384C702.128 321.136 701.948 320.068 701.588 319.18C701.228 318.292 700.676 317.608 699.932 317.128C699.212 316.648 698.3 316.408 697.196 316.408C696.092 316.408 695.156 316.66 694.388 317.164C693.62 317.668 693.032 318.4 692.624 319.36C692.24 320.296 692.048 321.424 692.048 322.744C692.048 323.968 692.24 325.06 692.624 326.02C693.008 326.956 693.596 327.7 694.388 328.252C695.18 328.78 696.188 329.044 697.412 329.044C698.636 329.044 699.632 328.804 700.4 328.324C701.168 327.82 701.66 327.208 701.876 326.488H706.484C706.196 327.832 705.644 329.008 704.828 330.016C704.012 331.024 702.968 331.804 701.696 332.356C700.448 332.908 699.02 333.184 697.412 333.184ZM710.268 332.5V312.952H714.228V321.34H713.868C713.868 319.348 714.132 317.692 714.66 316.372C715.188 315.028 715.968 314.02 717 313.348C718.056 312.676 719.364 312.34 720.924 312.34H721.14C723.468 312.34 725.232 313.096 726.432 314.608C727.632 316.096 728.232 318.328 728.232 321.304V332.5H723.228V320.872C723.228 319.672 722.88 318.7 722.184 317.956C721.512 317.212 720.576 316.84 719.376 316.84C718.152 316.84 717.156 317.224 716.388 317.992C715.644 318.736 715.272 319.744 715.272 321.016V332.5H710.268ZM740.992 333.148C739.624 333.148 738.364 332.896 737.212 332.392C736.06 331.888 735.064 331.18 734.224 330.268C733.384 329.356 732.736 328.3 732.28 327.1C731.824 325.876 731.596 324.556 731.596 323.14V322.384C731.596 320.992 731.812 319.684 732.244 318.46C732.7 317.236 733.324 316.168 734.116 315.256C734.932 314.344 735.904 313.636 737.032 313.132C738.184 312.604 739.456 312.34 740.848 312.34C742.384 312.34 743.728 312.676 744.88 313.348C746.056 313.996 746.992 314.98 747.688 316.3C748.384 317.62 748.768 319.276 748.84 321.268L747.364 319.54V306.22H752.368V332.5H748.408V324.184H749.272C749.2 326.176 748.792 327.844 748.048 329.188C747.304 330.508 746.32 331.504 745.096 332.176C743.896 332.824 742.528 333.148 740.992 333.148ZM742.108 328.936C743.092 328.936 743.992 328.72 744.808 328.288C745.624 327.832 746.272 327.184 746.752 326.344C747.256 325.48 747.508 324.472 747.508 323.32V321.88C747.508 320.728 747.256 319.768 746.752 319C746.248 318.208 745.588 317.608 744.772 317.2C743.956 316.768 743.068 316.552 742.108 316.552C741.028 316.552 740.068 316.816 739.228 317.344C738.412 317.848 737.764 318.568 737.284 319.504C736.828 320.44 736.6 321.532 736.6 322.78C736.6 324.028 736.84 325.12 737.32 326.056C737.8 326.968 738.448 327.676 739.264 328.18C740.104 328.684 741.052 328.936 742.108 328.936ZM772.493 333.148C771.125 333.148 769.865 332.896 768.713 332.392C767.561 331.888 766.565 331.18 765.725 330.268C764.885 329.356 764.237 328.3 763.781 327.1C763.325 325.876 763.097 324.556 763.097 323.14V322.384C763.097 320.992 763.313 319.684 763.745 318.46C764.201 317.236 764.825 316.168 765.617 315.256C766.433 314.344 767.405 313.636 768.533 313.132C769.685 312.604 770.957 312.34 772.349 312.34C773.885 312.34 775.229 312.676 776.381 313.348C777.557 313.996 778.493 314.98 779.189 316.3C779.885 317.62 780.269 319.276 780.341 321.268L778.865 319.54V306.22H783.869V332.5H779.909V324.184H780.773C780.701 326.176 780.293 327.844 779.549 329.188C778.805 330.508 777.821 331.504 776.597 332.176C775.397 332.824 774.029 333.148 772.493 333.148ZM773.609 328.936C774.593 328.936 775.493 328.72 776.309 328.288C777.125 327.832 777.773 327.184 778.253 326.344C778.757 325.48 779.009 324.472 779.009 323.32V321.88C779.009 320.728 778.757 319.768 778.253 319C777.749 318.208 777.089 317.608 776.273 317.2C775.457 316.768 774.569 316.552 773.609 316.552C772.529 316.552 771.569 316.816 770.729 317.344C769.913 317.848 769.265 318.568 768.785 319.504C768.329 320.44 768.101 321.532 768.101 322.78C768.101 324.028 768.341 325.12 768.821 326.056C769.301 326.968 769.949 327.676 770.765 328.18C771.605 328.684 772.553 328.936 773.609 328.936ZM797.593 333.184C795.913 333.184 794.437 332.896 793.165 332.32C791.917 331.744 790.873 330.976 790.033 330.016C789.217 329.032 788.593 327.94 788.161 326.74C787.753 325.54 787.549 324.316 787.549 323.068V322.384C787.549 321.088 787.753 319.84 788.161 318.64C788.593 317.416 789.217 316.336 790.033 315.4C790.873 314.44 791.905 313.684 793.129 313.132C794.353 312.556 795.769 312.268 797.377 312.268C799.489 312.268 801.253 312.736 802.669 313.672C804.109 314.584 805.189 315.796 805.909 317.308C806.629 318.796 806.989 320.404 806.989 322.132V323.932H789.673V320.872H803.857L802.309 322.384C802.309 321.136 802.129 320.068 801.769 319.18C801.409 318.292 800.857 317.608 800.113 317.128C799.393 316.648 798.481 316.408 797.377 316.408C796.273 316.408 795.337 316.66 794.569 317.164C793.801 317.668 793.213 318.4 792.805 319.36C792.421 320.296 792.229 321.424 792.229 322.744C792.229 323.968 792.421 325.06 792.805 326.02C793.189 326.956 793.777 327.7 794.569 328.252C795.361 328.78 796.369 329.044 797.593 329.044C798.817 329.044 799.813 328.804 800.581 328.324C801.349 327.82 801.841 327.208 802.057 326.488H806.665C806.377 327.832 805.825 329.008 805.009 330.016C804.193 331.024 803.149 331.804 801.877 332.356C800.629 332.908 799.201 333.184 797.593 333.184ZM814.198 332.5L808.078 312.952H813.226L819.094 332.5H814.198ZM815.674 332.5V328.396H820.966V332.5H815.674ZM817.654 332.5L822.694 312.952H827.518L822.226 332.5H817.654ZM838.903 333.184C837.223 333.184 835.747 332.896 834.475 332.32C833.227 331.744 832.183 330.976 831.343 330.016C830.527 329.032 829.903 327.94 829.471 326.74C829.063 325.54 828.859 324.316 828.859 323.068V322.384C828.859 321.088 829.063 319.84 829.471 318.64C829.903 317.416 830.527 316.336 831.343 315.4C832.183 314.44 833.215 313.684 834.439 313.132C835.663 312.556 837.079 312.268 838.687 312.268C840.799 312.268 842.563 312.736 843.979 313.672C845.419 314.584 846.499 315.796 847.219 317.308C847.939 318.796 848.299 320.404 848.299 322.132V323.932H830.983V320.872H845.167L843.619 322.384C843.619 321.136 843.439 320.068 843.079 319.18C842.719 318.292 842.167 317.608 841.423 317.128C840.703 316.648 839.791 316.408 838.687 316.408C837.583 316.408 836.647 316.66 835.879 317.164C835.111 317.668 834.523 318.4 834.115 319.36C833.731 320.296 833.539 321.424 833.539 322.744C833.539 323.968 833.731 325.06 834.115 326.02C834.499 326.956 835.087 327.7 835.879 328.252C836.671 328.78 837.679 329.044 838.903 329.044C840.127 329.044 841.123 328.804 841.891 328.324C842.659 327.82 843.151 327.208 843.367 326.488H847.975C847.687 327.832 847.135 329.008 846.319 330.016C845.503 331.024 844.459 331.804 843.187 332.356C841.939 332.908 840.511 333.184 838.903 333.184ZM852.011 332.5V306.22H857.015V332.5H852.011ZM849.563 309.964V306.22H857.015V309.964H849.563ZM871.404 333.184C869.676 333.184 868.152 332.908 866.832 332.356C865.512 331.804 864.396 331.06 863.484 330.124C862.572 329.164 861.876 328.084 861.396 326.884C860.94 325.684 860.712 324.436 860.712 323.14V322.384C860.712 321.04 860.952 319.768 861.432 318.568C861.936 317.344 862.644 316.264 863.556 315.328C864.492 314.368 865.62 313.624 866.94 313.096C868.26 312.544 869.748 312.268 871.404 312.268C873.06 312.268 874.548 312.544 875.868 313.096C877.188 313.624 878.304 314.368 879.216 315.328C880.152 316.264 880.86 317.344 881.34 318.568C881.82 319.768 882.06 321.04 882.06 322.384V323.14C882.06 324.436 881.82 325.684 881.34 326.884C880.884 328.084 880.2 329.164 879.288 330.124C878.376 331.06 877.26 331.804 875.94 332.356C874.62 332.908 873.108 333.184 871.404 333.184ZM871.404 328.9C872.628 328.9 873.66 328.636 874.5 328.108C875.34 327.556 875.976 326.824 876.408 325.912C876.84 324.976 877.056 323.92 877.056 322.744C877.056 321.544 876.828 320.488 876.372 319.576C875.94 318.64 875.292 317.908 874.428 317.38C873.588 316.828 872.58 316.552 871.404 316.552C870.228 316.552 869.208 316.828 868.344 317.38C867.504 317.908 866.856 318.64 866.4 319.576C865.944 320.488 865.716 321.544 865.716 322.744C865.716 323.92 865.932 324.976 866.364 325.912C866.82 326.824 867.468 327.556 868.308 328.108C869.148 328.636 870.18 328.9 871.404 328.9ZM885.722 339.7V312.952H889.682V321.376L889.07 321.34C889.166 319.348 889.574 317.68 890.294 316.336C891.038 314.992 892.022 313.996 893.246 313.348C894.47 312.676 895.838 312.34 897.35 312.34C898.742 312.34 899.99 312.592 901.094 313.096C902.222 313.6 903.182 314.308 903.974 315.22C904.79 316.132 905.414 317.2 905.846 318.424C906.278 319.624 906.494 320.92 906.494 322.312V323.068C906.494 324.484 906.278 325.804 905.846 327.028C905.438 328.228 904.826 329.296 904.01 330.232C903.218 331.144 902.258 331.864 901.13 332.392C900.002 332.896 898.742 333.148 897.35 333.148C895.886 333.148 894.542 332.848 893.318 332.248C892.118 331.624 891.146 330.676 890.402 329.404C889.658 328.108 889.238 326.44 889.142 324.4L890.726 326.812V339.7H885.722ZM896.09 328.936C897.17 328.936 898.106 328.672 898.898 328.144C899.714 327.616 900.35 326.884 900.806 325.948C901.262 324.988 901.49 323.908 901.49 322.708C901.49 321.46 901.262 320.38 900.806 319.468C900.35 318.556 899.714 317.848 898.898 317.344C898.106 316.816 897.17 316.552 896.09 316.552C895.106 316.552 894.194 316.768 893.354 317.2C892.538 317.632 891.866 318.268 891.338 319.108C890.834 319.948 890.582 320.956 890.582 322.132V323.572C890.582 324.7 890.846 325.66 891.374 326.452C891.902 327.244 892.586 327.856 893.426 328.288C894.266 328.72 895.154 328.936 896.09 328.936ZM918.922 333.184C917.242 333.184 915.766 332.896 914.494 332.32C913.246 331.744 912.202 330.976 911.362 330.016C910.546 329.032 909.922 327.94 909.49 326.74C909.082 325.54 908.878 324.316 908.878 323.068V322.384C908.878 321.088 909.082 319.84 909.49 318.64C909.922 317.416 910.546 316.336 911.362 315.4C912.202 314.44 913.234 313.684 914.458 313.132C915.682 312.556 917.098 312.268 918.706 312.268C920.818 312.268 922.582 312.736 923.998 313.672C925.438 314.584 926.518 315.796 927.238 317.308C927.958 318.796 928.318 320.404 928.318 322.132V323.932H911.002V320.872H925.186L923.638 322.384C923.638 321.136 923.458 320.068 923.098 319.18C922.738 318.292 922.186 317.608 921.442 317.128C920.722 316.648 919.81 316.408 918.706 316.408C917.602 316.408 916.666 316.66 915.898 317.164C915.13 317.668 914.542 318.4 914.134 319.36C913.75 320.296 913.558 321.424 913.558 322.744C913.558 323.968 913.75 325.06 914.134 326.02C914.518 326.956 915.106 327.7 915.898 328.252C916.69 328.78 917.698 329.044 918.922 329.044C920.146 329.044 921.142 328.804 921.91 328.324C922.678 327.82 923.17 327.208 923.386 326.488H927.994C927.706 327.832 927.154 329.008 926.338 330.016C925.522 331.024 924.478 331.804 923.206 332.356C921.958 332.908 920.53 333.184 918.922 333.184ZM931.778 332.5V312.952H935.738V321.232H935.63C935.63 318.424 936.23 316.3 937.43 314.86C938.63 313.42 940.394 312.7 942.722 312.7H943.442V317.056H942.074C940.394 317.056 939.086 317.512 938.15 318.424C937.238 319.312 936.782 320.608 936.782 322.312V332.5H931.778Z" fill="black"/>
<path d="M889.697 192.398C889.338 188.809 890.334 177.938 901.002 176.247C912.039 174.497 900.733 157.404 915 159.288" stroke="black" stroke-width="2"/>
<path d="M629.324 202.927C627.051 202.556 620.514 200.146 621.233 193.288C621.978 186.195 609.571 190.341 613.09 181.856" stroke="black" stroke-width="2"/>
<path d="M536.631 536.152C533.328 533.448 525.064 523.518 532.577 513.175C540.348 502.475 516.583 497.632 530.099 487.27" stroke="white" stroke-width="2"/>
<path d="M714.063 351.474C717.649 351.085 728.528 351.987 730.312 362.64C732.157 373.661 749.152 362.208 747.391 376.49" stroke="black" stroke-width="2"/>
<path d="M415.124 431.673C415.647 428.473 419.041 419.268 428.696 420.281C438.685 421.329 432.846 403.86 444.793 408.814" stroke="black" stroke-width="2"/>
<path d="M379.714 366.581L383.888 355.302L395.167 351.128L383.888 346.954L379.714 335.675L375.54 346.954L364.261 351.128L375.54 355.302L379.714 366.581Z" fill="#FFCE51"/>
<path d="M356.823 220.113L360.996 208.834L372.276 204.66L360.996 200.487L356.823 189.207L352.649 200.487L341.37 204.66L352.649 208.834L356.823 220.113Z" fill="#373F41"/>
<path d="M787.837 245.89L792.01 234.611L803.289 230.437L792.01 226.264L787.837 214.984L783.663 226.264L772.384 230.437L783.663 234.611L787.837 245.89Z" fill="#FFCE51"/>
<path d="M884.614 407.395L888.788 396.116L900.067 391.942L888.788 387.769L884.614 376.489L880.44 387.769L869.161 391.942L880.44 396.116L884.614 407.395Z" fill="#373F41"/>
</svg>
